<svg class="svg-icon" style="width: 1.015625em;height: 1em;vertical-align: middle;fill: currentColor;overflow: hidden;" viewBox="0 0 1040 1024" version="1.1" xmlns="http://www.w3.org/2000/svg"><path d="M522.672 464c25.6 0 48 19.84 48 42.56v226.88c0 22.72-22.4 42.56-48 42.56s-48-19.84-48-42.56V506.56c0-22.72 22.4-42.56 48-42.56z m0-176a64 64 0 1 1 0 128 64 64 0 0 1 0-128z" fill="#FFBD27" /><path d="M522.672 64c247.888 0 448 200.112 448 448s-200.112 448-448 448-448-200.112-448-448 200.112-448 448-448z m0 88a359.264 359.264 0 0 0-360 360 359.264 359.264 0 0 0 360 360 359.264 359.264 0 0 0 360-360 359.264 359.264 0 0 0-360-360z" fill="#FFBD27" /></svg>