<svg class="svg-icon" style="width: 1em; height: 1em;vertical-align: middle;fill: currentColor;overflow: hidden;" viewBox="0 0 1024 1024" version="1.1" xmlns="http://www.w3.org/2000/svg"><path d="M789.62 176.66V126.34c0-45.04-36.64-81.68-81.66-81.68H316.06c-45.04 0-81.68 36.64-81.68 81.68l0.04 720.78c0 0.08-0.02 0.14-0.02 0.22 0 0.08 0.02 0.14 0.02 0.22v50.1c0 45.04 36.62 81.66 81.62 81.66h391.92c45.02 0 81.64-36.62 81.64-81.66v-50.18c0-0.04 0.02-0.1 0.02-0.14 0-0.04-0.02-0.08-0.02-0.14V177.28c0.02-0.2 0.02-0.4 0.02-0.62z m-20.02 721c0 34-27.66 61.66-61.64 61.66H316.04c-33.98 0-61.62-27.66-61.62-61.66v-40.32H769.6v40.32z m0-60.32H254.42l-0.04-650.68H769.6v650.68z m0.02-670.68H254.38V126.34c0-34 27.66-61.68 61.68-61.68h391.9c34 0 61.66 27.68 61.66 61.68v40.32z" fill="#23130D" /><path d="M254.42 857.34v40.32c0 34 27.64 61.66 61.62 61.66h391.92c33.98 0 61.64-27.66 61.64-61.66v-40.32H254.42z m323.52 58.44h-129.64c-5.52 0-10-4.48-10-10s4.48-10 10-10h129.64c5.52 0 10 4.48 10 10s-4.48 10-10 10zM707.96 64.66H316.06c-34.02 0-61.68 27.68-61.68 61.68v40.32h515.24V126.34c0-34-27.66-61.68-61.66-61.68zM364.28 128.22h-34.96c-5.52 0-10-4.48-10-10s4.48-10 10-10h34.96c5.52 0 10 4.48 10 10s-4.48 10-10 10z m213.66 0h-129.64c-5.52 0-10-4.48-10-10s4.48-10 10-10h129.64c5.52 0 10 4.48 10 10s-4.48 10-10 10z" fill="#E1E1E5" /><path d="M707.96 64.66H316.06c-34.02 0-61.68 27.68-61.68 61.68v29.34c0-34 27.66-61.68 61.68-61.68h391.9c34 0 61.66 27.68 61.66 61.68V126.34c0-34-27.66-61.68-61.66-61.68zM316.04 959.32h391.9c34.02 0 61.68-27.68 61.68-61.68v-29.34c0 34-27.66 61.68-61.68 61.68H316.04c-34 0-61.66-27.68-61.66-61.68v29.34c0 34 27.66 61.68 61.66 61.68z" fill="#23130D" opacity=".2" /><path d="M254.38 186.66l0.04 650.68H769.6V186.66H254.38z m91.38 149.02c44.42-44.4 103.46-68.86 166.24-68.86s121.82 24.46 166.24 68.86a10.006 10.006 0 0 1 0 14.14c-1.96 1.94-4.52 2.92-7.08 2.92-2.54 0-5.1-0.96-7.06-2.92-40.64-40.62-94.66-63-152.1-63s-111.46 22.38-152.1 63a10.006 10.006 0 0 1-14.14 0 9.97 9.97 0 0 1 0-14.14z m166.24 7.46c-42.4 0-82.28 16.52-112.28 46.52a10.006 10.006 0 0 1-14.14 0 10.032 10.032 0 0 1 0-14.16c33.78-33.76 78.68-52.36 126.42-52.36s92.64 18.6 126.42 52.36a10.032 10.032 0 0 1 0 14.16 10.044 10.044 0 0 1-14.16 0c-29.98-30-69.86-46.52-112.26-46.52z m86.6 86.32a9.98 9.98 0 0 1-7.08 2.94 9.9 9.9 0 0 1-7.06-2.94c-19.38-19.34-45.1-30-72.46-30s-53.1 10.66-72.46 30a10.006 10.006 0 0 1-14.14 0 10.006 10.006 0 0 1 0-14.14c23.14-23.12 53.9-35.86 86.6-35.86s63.44 12.74 86.58 35.86a9.988 9.988 0 0 1 0.02 14.14z m104.48 289.34c0 13.22-6.68 25.34-17.84 32.42a38.26 38.26 0 0 1-20.54 5.96h-305.4c-7.24 0-13.98-2.04-19.76-5.54-0.26-0.12-0.5-0.3-0.76-0.46-10.72-6.82-17.86-18.76-17.86-32.38V516.2c-0.02-14.98 8.74-28.6 22.34-34.86h0.02c0.02-0.02 0.04-0.02 0.08-0.04l0.36-0.18a38.18 38.18 0 0 1 15.56-3.28h305.42c2.7 0 5.42 0.28 8.1 0.84 2.62 0.58 5.14 1.4 7.54 2.48l0.36 0.18c13.6 6.2 22.38 19.86 22.38 34.86v202.6z" fill="#3594BF" /><path d="M587.94 118.22c0 5.52-4.48 10-10 10h-129.64c-5.52 0-10-4.48-10-10s4.48-10 10-10h129.64c5.52 0 10 4.48 10 10zM374.28 118.22c0 5.52-4.48 10-10 10h-34.96c-5.52 0-10-4.48-10-10s4.48-10 10-10h34.96c5.52 0 10 4.48 10 10zM587.94 905.78c0 5.52-4.48 10-10 10h-129.64c-5.52 0-10-4.48-10-10s4.48-10 10-10h129.64c5.52 0 10 4.48 10 10zM680.7 481.34l-0.36-0.18c-2.4-1.08-4.92-1.9-7.54-2.48-2.68-0.56-5.4-0.84-8.1-0.84H359.28c-5.4 0-10.64 1.1-15.56 3.28l-0.36 0.18c-0.04 0.02-0.06 0.02-0.08 0.04h-0.02c-13.6 6.26-22.36 19.88-22.34 34.86v202.6c0 13.62 7.14 25.56 17.86 32.38 0.26 0.16 0.5 0.34 0.76 0.46 5.78 3.5 12.52 5.54 19.76 5.54h305.4c7.32 0 14.44-2.08 20.54-5.96 11.16-7.08 17.84-19.2 17.84-32.42V516.2c0-15-8.78-28.66-22.38-34.86z m-23.1 16.5l-83.46 106.36h-124.26l-83.46-106.36H657.6zM343.24 727.7a18.156 18.156 0 0 1-2.32-8.9V516.2c-0.02-4.66 1.78-9.02 4.8-12.34l86.58 110.34-89.06 113.5z m17.98 9.48l88.66-112.98 124.26-0.02 88.64 113H361.22z m321.86-18.38c0 3.18-0.8 6.22-2.3 8.9l-89.08-113.5 86.6-110.34a18.402 18.402 0 0 1 4.78 12.34v202.6z" fill="#23130D" /><path d="M683.08 516.2v202.6c0 3.18-0.8 6.22-2.3 8.9l-89.08-113.5 86.6-110.34a18.402 18.402 0 0 1 4.78 12.34zM662.78 737.18H361.22l88.66-112.98 124.26-0.02z" fill="#F9C139" /><path d="M662.78 737.18H361.22l15.68-19.98h270.2z" fill="#23130D" opacity=".2" /><path d="M432.3 614.2l-89.06 113.5a18.156 18.156 0 0 1-2.32-8.9V516.2c-0.02-4.66 1.78-9.02 4.8-12.34l86.58 110.34zM657.6 497.84l-83.46 106.36h-124.26l-83.46-106.36z" fill="#F9C139" /><path d="M657.6 497.84l-15.68 19.98H382.1l-15.68-19.98z" fill="#FFFFFF" opacity=".4" /><path d="M598.6 429.46a9.98 9.98 0 0 1-7.08 2.94 9.9 9.9 0 0 1-7.06-2.94c-19.38-19.34-45.1-30-72.46-30s-53.1 10.66-72.46 30a10.006 10.006 0 0 1-14.14 0 10.006 10.006 0 0 1 0-14.14c23.14-23.12 53.9-35.86 86.6-35.86s63.44 12.74 86.58 35.86a9.988 9.988 0 0 1 0.02 14.14z" fill="#23130D" /><path d="M638.42 389.66a10.044 10.044 0 0 1-14.16 0c-29.98-30-69.86-46.52-112.26-46.52s-82.28 16.52-112.28 46.52a10.006 10.006 0 0 1-14.14 0 10.032 10.032 0 0 1 0-14.16c33.78-33.76 78.68-52.36 126.42-52.36s92.64 18.6 126.42 52.36a10.032 10.032 0 0 1 0 14.16z" fill="#23130D" /><path d="M678.24 349.82c-1.96 1.94-4.52 2.92-7.08 2.92-2.54 0-5.1-0.96-7.06-2.92-40.64-40.62-94.66-63-152.1-63s-111.46 22.38-152.1 63a10.006 10.006 0 0 1-14.14 0 9.97 9.97 0 0 1 0-14.14c44.42-44.4 103.46-68.86 166.24-68.86s121.82 24.46 166.24 68.86a10.006 10.006 0 0 1 0 14.14z" fill="#23130D" /></svg>