<svg class="svg-icon" style="width: 1em;height: 1em;vertical-align: middle;fill: currentColor;overflow: hidden;" viewBox="0 0 1024 1024" version="1.1" xmlns="http://www.w3.org/2000/svg"><path d="M512.016 560c-57.344 0-104-46.656-104-104s46.656-104 104-104 104 46.656 104 104-46.656 104-104 104z m0-192c-48.512 0-88 39.472-88 88s39.488 88 88 88 88-39.472 88-88-39.488-88-88-88z" fill="#263238" /><path d="M578.576 400.496l7.152-5.952A96 96 0 0 0 416.016 456h9.056c56.08 0 110.4-19.632 153.504-55.504z" fill="#FFD740" /><path d="M425.072 464h-9.056a8 8 0 0 1-8-8c0-57.344 46.656-104 104-104 30.912 0 60.016 13.632 79.856 37.408a8 8 0 0 1-1.04 11.28l-7.152 5.952A248.4 248.4 0 0 1 425.072 464z m-0.704-16h0.704c54.096 0 106.8-19.056 148.384-53.664l0.72-0.608A87.776 87.776 0 0 0 512.016 368a88.128 88.128 0 0 0-87.648 80zM511.936 631.488a8.032 8.032 0 0 1-6.048-2.752l-48.064-55.408a8.064 8.064 0 0 1-1.952-5.232l-0.016-29.12a8.016 8.016 0 0 1 12.032-6.928 88.8 88.8 0 0 0 87.968 0.176 8.032 8.032 0 0 1 12 6.928l0.016 28.768c0 1.92-0.688 3.776-1.936 5.232l-47.936 55.568a8.048 8.048 0 0 1-6.064 2.768z m-40.064-66.4l40.048 46.16 39.952-46.304-0.016-12.944a104.672 104.672 0 0 1-80-0.144l0.016 13.232z" fill="#263238" /><path d="M367.76 634.032a7.968 7.968 0 0 1-6.432-12.752 87.136 87.136 0 0 1 31.312-26.544l67.696-33.824a8.016 8.016 0 0 1 9.632 1.92l42.048 48.416 41.824-48.544a8.016 8.016 0 0 1 9.648-1.936l67.92 33.968a87.024 87.024 0 0 1 31.28 26.528 8 8 0 0 1-12.864 9.504 71.36 71.36 0 0 0-25.568-21.712l-62.336-31.168-43.792 50.832a8.032 8.032 0 0 1-6.048 2.784h-0.016a8.048 8.048 0 0 1-6.048-2.752l-44.048-50.72-62.16 31.04a71.328 71.328 0 0 0-25.6 21.744 8.08 8.08 0 0 1-6.448 3.216z" fill="#263238" /><path d="M512 704a8 8 0 0 1-8-8v-72.512a8 8 0 0 1 16 0V696a8 8 0 0 1-8 8zM64 520a8 8 0 0 1-8-8C56 260.56 260.56 56 512 56a8 8 0 0 1 0 16C269.392 72 72 269.376 72 512a8 8 0 0 1-8 8zM560 72h-16a8 8 0 0 1 0-16h16a8 8 0 0 1 0 16zM512 968a8 8 0 0 1 0-16c242.608 0 440-197.376 440-440a8 8 0 0 1 16 0c0 251.44-204.56 456-456 456zM480 968h-16a8 8 0 0 1 0-16h16a8 8 0 0 1 0 16z" fill="#263238" /><path d="M512 824c-172.032 0-312-139.968-312-312S339.968 200 512 200 824 339.968 824 512 684.032 824 512 824z m0-608c-163.216 0-296 132.784-296 296S348.784 808 512 808 808 675.216 808 512 675.216 216 512 216zM512 736c-123.52 0-224-100.48-224-224s100.48-224 224-224 224 100.48 224 224-100.48 224-224 224z m0-432c-114.688 0-208 93.312-208 208s93.312 208 208 208 208-93.312 208-208-93.312-208-208-208z" fill="#263238" /><path d="M512 904C295.84 904 120 728.144 120 512S295.84 120 512 120 904 295.856 904 512 728.16 904 512 904z m0-768C304.672 136 136 304.672 136 512S304.672 888 512 888 888 719.328 888 512 719.328 136 512 136z m0 688c-172.032 0-312-139.968-312-312S339.968 200 512 200 824 339.968 824 512 684.032 824 512 824z m0-608c-163.216 0-296 132.784-296 296S348.784 808 512 808 808 675.216 808 512 675.216 216 512 216zM848 104h-64a8 8 0 0 1 0-16h64a8 8 0 0 1 0 16z" fill="#263238" /><path d="M816 136a8 8 0 0 1-8-8V64a8 8 0 0 1 16 0v64a8 8 0 0 1-8 8zM960 208h-64a8 8 0 0 1 0-16h64a8 8 0 0 1 0 16z" fill="#263238" /><path d="M928 240a8 8 0 0 1-8-8v-64a8 8 0 0 1 16 0v64a8 8 0 0 1-8 8z" fill="#263238" /><path d="M512 208c55.936 0 108.16 15.36 153.168 41.712l40.448-69.28A381.984 381.984 0 0 0 512 128C299.92 128 128 299.92 128 512h80c0-167.888 136.112-304 304-304z" fill="#FFD740" /><path d="M208 520H128a8 8 0 0 1-8-8C120 295.856 295.84 120 512 120c69.488 0 137.824 18.512 197.664 53.536 3.792 2.24 5.088 7.12 2.864 10.944l-40.448 69.28a7.984 7.984 0 0 1-10.96 2.88A295.376 295.376 0 0 0 512 216c-163.216 0-296 132.784-296 296a8 8 0 0 1-8 8z m-71.92-16h64.016c4.272-168.352 142.544-304 311.904-304 52.336 0 104.128 13.408 150.256 38.864l32.384-55.488A375.632 375.632 0 0 0 512 136c-204.656 0-371.664 164.336-375.92 368z" fill="#263238" /><path d="M708.32 601.696C674.24 676.16 599.248 728 512 728V816c122.8 0 228.336-72.96 276.304-177.776l-79.984-36.528z" fill="#FF5252" /><path d="M512 824a8 8 0 0 1-8-8v-88a8 8 0 0 1 8-8c81.008 0 155.216-47.744 189.04-121.648a8.048 8.048 0 0 1 10.608-3.952l79.984 36.544a8 8 0 0 1 3.952 10.592C744.848 752.384 633.536 824 512 824z m8-88.144v72.032c109.504-2.992 209.184-67.136 257.616-165.744l-65.472-29.92c-36.656 73.072-110.672 120.704-192.144 123.632z" fill="#263238" /><path d="M512 816c-167.888 0-304-136.112-304-304H128c0 212.08 171.92 384 384 384 80.576 0 155.328-24.864 217.072-67.28l-45.248-66.032A302.4 302.4 0 0 1 512 816z" fill="#40C4FF" /><path d="M512 904C295.84 904 120 728.144 120 512a8 8 0 0 1 8-8h80a8 8 0 0 1 8 8c0 163.216 132.784 296 296 296 60.016 0 117.856-17.952 167.296-51.904a7.952 7.952 0 0 1 11.12 2.064l45.248 66.032a8 8 0 0 1-2.064 11.12A389.632 389.632 0 0 1 512 904z m-375.92-384c4.272 203.664 171.264 368 375.92 368 73.632 0 144.64-21.216 205.904-61.408l-36.208-52.848A310.112 310.112 0 0 1 512 824c-169.36 0-307.648-135.648-311.904-304H136.08z" fill="#263238" /></svg>